<svg width="22" height="22" viewBox="0 0 22 22" fill="none" xmlns="http://www.w3.org/2000/svg">
<g clip-path="url(#clip0_268_501)">
<path d="M11.0097 5.39509C10.8163 5.39509 10.6249 5.40496 10.4364 5.42427C10.2479 5.44358 10.0619 5.47219 9.87917 5.50976C9.69642 5.54733 9.51691 5.59384 9.34099 5.64875L8.82466 5.83834L8.33307 6.07571L7.86917 6.35798L7.43572 6.68218L7.03575 7.04551L6.67208 7.44512L6.34752 7.87808L6.0649 8.34155L5.82738 8.83258C5.75599 9.00053 5.69248 9.17272 5.63751 9.34849C5.58254 9.52427 5.53602 9.70371 5.49838 9.88625C5.46075 10.0688 5.43213 10.2545 5.41275 10.4429C5.39337 10.6313 5.38364 10.8224 5.38364 11.0157C5.38364 11.2089 5.39351 11.4001 5.41275 11.5885C5.43188 11.7754 5.46046 11.9612 5.49838 12.1452C5.53602 12.3284 5.58254 12.5072 5.63751 12.6829C5.69248 12.8587 5.75592 13.0308 5.82738 13.1989L6.0649 13.6899L6.34752 14.1533L6.67208 14.5863L7.03575 14.9859L7.43572 15.3492L7.86917 15.6735L8.33307 15.9557L8.82466 16.1931L9.34099 16.3827L9.87917 16.5217C10.0634 16.5596 10.2493 16.5881 10.4364 16.6072C10.6269 16.6267 10.8182 16.6364 11.0097 16.6363C11.2032 16.6363 11.3946 16.6265 11.583 16.6072C11.7701 16.5881 11.956 16.5596 12.1402 16.5217L12.6785 16.3827L13.1948 16.1931L13.6863 15.9557L14.1503 15.6735L14.5837 15.3492L14.9838 14.9859L15.3475 14.5863L15.672 14.1533L15.9546 13.6899L16.1922 13.1989L16.382 12.6829C16.437 12.5072 16.4835 12.3277 16.5212 12.1452L16.6068 11.5884C16.6261 11.4 16.636 11.2089 16.636 11.0156C16.636 10.8224 16.6261 10.6312 16.6068 10.4428C16.5877 10.256 16.5591 10.0702 16.5212 9.88618C16.4835 9.70293 16.437 9.52427 16.382 9.34842L16.1922 8.83251L15.9546 8.34148L15.672 7.87801L15.3475 7.44505L14.9838 7.04544L14.5837 6.68212L14.1503 6.35791L13.6863 6.07564L13.1948 5.83826L12.6785 5.64867L12.1402 5.50969L11.583 5.4242C11.3925 5.40474 11.2012 5.39501 11.0097 5.39502V5.39509ZM11.0097 7.33511C11.1377 7.33511 11.2639 7.34145 11.3882 7.35399L11.7547 7.40946L12.1087 7.49968L12.4477 7.6228L12.77 7.77715L13.0731 7.96075L13.3564 8.17198L13.6176 8.40893L13.8548 8.66984L14.0662 8.95289L14.25 9.25638L14.4044 9.57847C14.4507 9.6887 14.4919 9.80167 14.5277 9.91719C14.5635 10.0327 14.5936 10.1508 14.6179 10.271C14.6422 10.3912 14.6602 10.5136 14.6734 10.6378L14.6923 11.016C14.6923 11.1438 14.6859 11.27 14.6734 11.3943C14.6608 11.5186 14.6424 11.641 14.6179 11.7611C14.5935 11.8813 14.5633 11.9994 14.5277 12.1149L14.4044 12.4537L14.25 12.7758L14.0662 13.0792L13.8548 13.3623L13.6176 13.6232L13.3564 13.8602L13.0731 14.0714L12.77 14.255L12.4477 14.4093L12.1087 14.5325L11.7547 14.6227L11.3882 14.6781C11.2624 14.6907 11.1361 14.697 11.0097 14.697C10.8832 14.697 10.7569 14.6907 10.631 14.6781L10.2646 14.6227C10.1442 14.5983 10.0261 14.5681 9.91047 14.5325L9.57146 14.4093L9.24916 14.255L8.9461 14.0714L8.66277 13.8602L8.40157 13.6232L8.16441 13.3623L7.95297 13.0792L7.76916 12.7758L7.61481 12.4537L7.49147 12.1149L7.40126 11.7611L7.34579 11.3943C7.33318 11.2686 7.32687 11.1424 7.3269 11.016C7.32687 10.8897 7.33318 10.7635 7.34579 10.6378C7.35827 10.5136 7.3768 10.3912 7.40126 10.271C7.42547 10.1517 7.4556 10.0336 7.49154 9.91726L7.61488 9.57854L7.76923 9.25645L7.95304 8.95296L8.16448 8.66992L8.40164 8.409L8.66284 8.17205L8.94617 7.96082L9.24923 7.77722L9.57153 7.62287C9.68247 7.57629 9.79563 7.5352 9.91061 7.49975L10.2647 7.40953C10.385 7.38515 10.5075 7.36654 10.6312 7.35407C10.757 7.34146 10.8834 7.33516 11.0098 7.33518L11.0097 7.33511Z" fill="url(#paint0_radial_268_501)"/>
<path d="M16.864 3.79639C16.8194 3.7964 16.7747 3.79865 16.7303 3.80315C16.6858 3.80764 16.6416 3.81437 16.5978 3.82331C16.5541 3.83224 16.5107 3.84336 16.4681 3.85665C16.4254 3.86994 16.3834 3.88537 16.3423 3.90288C16.3011 3.92041 16.2609 3.94001 16.2217 3.96159C16.1825 3.98313 16.1444 4.00663 16.1075 4.032C16.0706 4.0574 16.035 4.08464 16.0009 4.11362C15.9667 4.14256 15.934 4.17321 15.9029 4.20545C15.8718 4.2377 15.8423 4.27151 15.8145 4.30673C15.7868 4.34195 15.7608 4.37855 15.7366 4.41639C15.7125 4.4542 15.6903 4.4932 15.67 4.53325C15.6498 4.57332 15.6315 4.61439 15.6153 4.65631C15.5991 4.69821 15.585 4.7409 15.5731 4.78423C15.5611 4.82755 15.5513 4.87144 15.5437 4.91574C15.5361 4.96003 15.5308 5.00468 15.5276 5.04951C15.5254 5.08127 15.5242 5.1131 15.5242 5.14494C15.5242 5.18992 15.5264 5.23487 15.5309 5.27963C15.5354 5.32436 15.5421 5.36884 15.5509 5.4129C15.5598 5.45696 15.5709 5.50055 15.5841 5.5435C15.5973 5.58646 15.6126 5.62873 15.63 5.67015C15.6474 5.71158 15.6669 5.75211 15.6883 5.79159C15.7097 5.83106 15.7331 5.86942 15.7583 5.90654C15.7835 5.94363 15.8106 5.97944 15.8393 6.01381C15.8681 6.04821 15.8986 6.08114 15.9306 6.11248C15.9627 6.1438 15.9962 6.17348 16.0312 6.20143C16.0662 6.22939 16.1026 6.25557 16.1402 6.27987C16.1778 6.30417 16.2166 6.32657 16.2564 6.34697C16.2962 6.36738 16.337 6.38577 16.3786 6.40208C16.4203 6.41837 16.4627 6.43255 16.5057 6.44458C16.5488 6.45659 16.5924 6.46642 16.6364 6.47404C16.6804 6.48169 16.7248 6.48713 16.7693 6.49032C16.8009 6.49258 16.8325 6.4937 16.8641 6.4937C16.9088 6.49372 16.9534 6.49148 16.9979 6.48701C17.0423 6.48252 17.0865 6.47579 17.1303 6.46685C17.1741 6.45792 17.2174 6.4468 17.2601 6.43352C17.3027 6.42022 17.3447 6.40479 17.3859 6.38728C17.427 6.36977 17.4672 6.3502 17.5064 6.32864C17.5457 6.30708 17.5838 6.28356 17.6206 6.25816C17.6575 6.23279 17.6931 6.20557 17.7273 6.17662C17.7614 6.14765 17.7941 6.11697 17.8252 6.08471C17.8563 6.05246 17.8858 6.01866 17.9136 5.98343C17.9414 5.94821 17.9674 5.91161 17.9915 5.87377C18.0156 5.83593 18.0378 5.79691 18.0581 5.75684C18.0784 5.71677 18.0966 5.6757 18.1129 5.63379C18.129 5.59188 18.1431 5.54919 18.1551 5.50587C18.167 5.46255 18.1768 5.41865 18.1844 5.37435C18.192 5.33006 18.1974 5.28541 18.2005 5.24058C18.2028 5.20882 18.2039 5.17699 18.2039 5.14515C18.2039 5.10019 18.2017 5.05527 18.1972 5.01054C18.1928 4.9658 18.1861 4.92132 18.1772 4.87726C18.1683 4.8332 18.1573 4.78961 18.1441 4.74666C18.1309 4.7037 18.1155 4.66143 18.0981 4.62001C18.0807 4.57858 18.0613 4.53805 18.0398 4.49857C18.0184 4.45911 17.9951 4.42074 17.9698 4.38362C17.9446 4.3465 17.9175 4.31068 17.8887 4.27628C17.86 4.24188 17.8295 4.20895 17.7975 4.17761C17.7655 4.14629 17.7319 4.11661 17.6969 4.08867C17.6619 4.06073 17.6255 4.03457 17.5879 4.01029C17.5503 3.98599 17.5115 3.9636 17.4717 3.94319C17.4319 3.92278 17.3911 3.90439 17.3495 3.88808C17.3079 3.87179 17.2655 3.85761 17.2224 3.84558C17.1794 3.83355 17.1358 3.8237 17.0917 3.81605C17.0477 3.80842 17.0034 3.80301 16.9588 3.79984C16.9273 3.79759 16.8957 3.79646 16.864 3.79646V3.79639Z" fill="url(#paint1_radial_268_501)"/>
<path d="M9.94281 0.0199804C9.33091 0.0189936 8.78484 0.0215306 8.2943 0.0284375L6.97915 0.0636772C6.58954 0.0805923 6.24532 0.102651 5.93634 0.131195C5.78185 0.145432 5.6361 0.16136 5.49796 0.17891C5.36651 0.195478 5.23541 0.214771 5.10475 0.236774C4.98036 0.257918 4.86231 0.280752 4.74912 0.305561C4.63593 0.33037 4.52781 0.357153 4.4235 0.385908C4.32153 0.414027 4.22035 0.444957 4.12009 0.47866C4.02184 0.511785 3.92599 0.546884 3.83133 0.584379C3.64203 0.659369 3.45737 0.74352 3.26722 0.837821C3.1209 0.910415 2.98572 0.983925 2.85731 1.06173C2.72889 1.13954 2.60725 1.22172 2.48814 1.31123C2.36547 1.40386 2.24724 1.50222 2.13384 1.60598C2.01529 1.71395 1.89421 1.83271 1.7684 1.96542C1.61032 2.13126 1.47295 2.28589 1.35102 2.43763C1.29006 2.51347 1.23297 2.58846 1.17919 2.66387C1.12601 2.73819 1.07517 2.81416 1.02675 2.89166C0.97882 2.96848 0.933432 3.04672 0.890016 3.1272C0.845924 3.20908 0.804252 3.29223 0.765056 3.37656C0.68485 3.54881 0.610001 3.73431 0.535293 3.94138C0.479869 4.09446 0.43024 4.24958 0.386511 4.40641C0.341898 4.56668 0.302218 4.73435 0.266837 4.91569C0.231456 5.09703 0.200586 5.29205 0.173452 5.50772C0.144212 5.74412 0.120852 5.98122 0.103395 6.21878C0.0836611 6.47998 0.06731 6.7674 0.0539189 7.0873L0.0222032 8.15098L0.00514716 9.44759L0.000213623 11.0148L0.0146619 13.2939L0.0597687 15.0207L0.094515 15.6952L0.13793 16.2541C0.151848 16.4047 0.169261 16.555 0.190156 16.7048C0.209185 16.8379 0.229624 16.9543 0.251614 17.0551C0.296232 17.26 0.348992 17.4631 0.409769 17.6638C0.467962 17.856 0.534511 18.0455 0.609226 18.2319C0.682666 18.4144 0.763012 18.5905 0.850407 18.7599C0.937801 18.9293 1.03224 19.0921 1.13373 19.2485C1.23522 19.4049 1.34376 19.5549 1.45963 19.6985C1.57537 19.842 1.69847 19.9795 1.82845 20.1103C1.95862 20.2414 2.09592 20.3662 2.24061 20.4847C2.38702 20.6046 2.5392 20.7173 2.69661 20.8223C2.84272 20.92 2.98727 21.0095 3.13288 21.0916C3.27849 21.1737 3.42537 21.2482 3.57634 21.3159C3.72731 21.3836 3.88208 21.4446 4.04376 21.4994C4.20544 21.5543 4.37388 21.603 4.55191 21.6463C4.72995 21.6896 4.91841 21.7276 5.11786 21.7607C5.31732 21.7938 5.53052 21.8222 5.75831 21.8467C5.9861 21.8711 6.22911 21.8914 6.49024 21.9083C6.75136 21.9252 7.03046 21.9387 7.33035 21.9496C7.79361 21.9663 8.49488 21.9761 9.30356 21.9799L11.9215 21.9746L14.4006 21.9398L15.3432 21.9133L15.9572 21.8818C16.089 21.8711 16.218 21.8584 16.3425 21.8435C16.4669 21.8286 16.5897 21.8116 16.7093 21.7923C16.8288 21.773 16.9456 21.7515 17.0605 21.7275C17.1739 21.7039 17.2868 21.6775 17.399 21.6483C17.5101 21.6202 17.6196 21.5881 17.728 21.554C17.8364 21.52 17.9437 21.4832 18.0503 21.4437C18.1576 21.404 18.2639 21.3617 18.369 21.3168C18.475 21.2717 18.5808 21.2235 18.6869 21.1723C18.8499 21.0938 18.9812 21.0283 19.0964 20.9644C19.2048 20.9049 19.3092 20.8385 19.4089 20.7654C19.5073 20.6929 19.6051 20.6105 19.7179 20.5066C19.8306 20.4027 19.9584 20.2775 20.1167 20.1192C20.2557 19.9802 20.373 19.8594 20.4741 19.7496C20.5753 19.6397 20.6605 19.5408 20.7352 19.4455C20.8064 19.3551 20.8727 19.2609 20.9339 19.1635C20.9936 19.0683 21.0486 18.9695 21.1046 18.8599C21.1889 18.695 21.2639 18.5422 21.3311 18.3949C21.3963 18.2528 21.4559 18.1083 21.5097 17.9616C21.5627 17.816 21.6086 17.6679 21.6472 17.5179C21.6869 17.3636 21.7212 17.2006 21.7508 17.0219C21.7804 16.8431 21.8054 16.6486 21.8271 16.4314C21.8488 16.2142 21.8673 15.9741 21.8835 15.7044L21.9265 14.7989L21.9634 13.6729L21.9898 12.4184L21.9999 11.1066L21.9764 8.53023L21.9449 7.37627L21.9019 6.38547L21.8483 5.61301C21.8289 5.39805 21.8079 5.22876 21.7856 5.1143C21.761 4.98783 21.7334 4.86195 21.703 4.73674C21.6734 4.61491 21.6409 4.49382 21.6054 4.37356C21.5708 4.2564 21.5333 4.14015 21.4928 4.0249C21.4527 3.91108 21.4103 3.79965 21.3659 3.69062C21.3215 3.58159 21.2734 3.47509 21.2234 3.37085C21.1734 3.26661 21.1209 3.16491 21.0659 3.06554C21.0108 2.96616 20.9535 2.86925 20.8935 2.77474C20.8335 2.68022 20.7711 2.58811 20.706 2.49846C20.6413 2.40909 20.5739 2.32177 20.5037 2.23663C20.4339 2.15195 20.3615 2.06949 20.2865 1.98939C20.2116 1.90938 20.1342 1.83177 20.0544 1.75666C19.9746 1.68153 19.8923 1.6088 19.8075 1.53846C19.7223 1.46789 19.635 1.39998 19.5456 1.33484C19.4552 1.26904 19.3629 1.206 19.2687 1.14582C19.1732 1.08478 19.076 1.02658 18.9771 0.97131C18.8764 0.91511 18.7742 0.861805 18.6705 0.811463C18.4984 0.727804 18.3392 0.65359 18.183 0.587762C18.0294 0.522432 17.8728 0.464409 17.7137 0.413889C17.5537 0.363496 17.3872 0.320293 17.204 0.283009C17.0207 0.245725 16.8209 0.214644 16.5947 0.188214C16.3686 0.161784 16.116 0.14043 15.8272 0.122669C15.5384 0.104908 15.2135 0.090952 14.8426 0.0796753L13.582 0.051484L11.9866 0.0326661L9.94352 0.0201202L9.94281 0.0199804ZM11.0039 1.9583L13.9501 1.97508L15.0616 1.9965C15.3677 2.0051 15.6013 2.01518 15.7382 2.02681C15.9165 2.04182 16.0864 2.06064 16.2488 2.08319C16.4047 2.10472 16.5599 2.1315 16.714 2.16347C16.862 2.19448 17.0032 2.22972 17.1383 2.26947C17.2734 2.30922 17.4024 2.35376 17.5263 2.40303C17.6501 2.45229 17.7685 2.50649 17.8825 2.56584C17.9955 2.62473 18.1054 2.68955 18.2116 2.76001C18.3173 2.83013 18.4192 2.90569 18.5182 2.98709C18.6171 3.0685 18.7131 3.15575 18.8067 3.24906C18.9056 3.34752 18.9968 3.44782 19.0809 3.55128C19.1647 3.6541 19.2422 3.76187 19.313 3.874C19.3846 3.98773 19.4491 4.10578 19.5062 4.22746C19.5646 4.3515 19.617 4.48259 19.6641 4.62193C19.7112 4.76127 19.7531 4.90935 19.7903 5.06757C19.8292 5.23532 19.8618 5.40448 19.888 5.57467C19.9161 5.7551 19.9402 5.94751 19.9607 6.15352C19.9811 6.35953 19.998 6.57922 20.012 6.81426C20.0231 7.0028 20.0329 7.25159 20.0411 7.54542L20.0618 8.54728L20.0775 11.0014L20.0596 13.4531L20.038 14.4521L20.0083 15.1787C19.9877 15.5189 19.966 15.8049 19.9401 16.0538C19.9271 16.1783 19.913 16.2935 19.8973 16.4015C19.8827 16.5036 19.8653 16.6052 19.8452 16.7064C19.8269 16.7987 19.8056 16.8904 19.7815 16.9813C19.7583 17.068 19.7322 17.154 19.7033 17.239C19.6742 17.3244 19.6424 17.4089 19.6082 17.4925C19.572 17.5806 19.5338 17.668 19.4937 17.7544C19.458 17.8316 19.4204 17.9067 19.3806 17.9798C19.3413 18.0521 19.2996 18.1231 19.2555 18.1926C19.2118 18.2615 19.166 18.3283 19.118 18.3931C19.0704 18.4577 19.0204 18.5205 18.9682 18.5814C18.9162 18.6421 18.8619 18.7009 18.8056 18.7576C18.7492 18.8144 18.6907 18.8691 18.6301 18.922C18.5695 18.9748 18.5066 19.0256 18.4416 19.0745C18.3765 19.1234 18.3092 19.1704 18.2396 19.2153C18.1701 19.2603 18.0983 19.3034 18.0243 19.3446C17.9502 19.3857 17.8738 19.4251 17.7952 19.4625C17.7153 19.5005 17.6342 19.5361 17.5521 19.5692C17.4673 19.6034 17.3815 19.6353 17.2949 19.6647C17.1187 19.7248 16.9328 19.7775 16.7372 19.8229C16.5333 19.87 16.3275 19.9085 16.1203 19.9384C16.0407 19.95 15.8577 19.9609 15.5955 19.9711L14.5964 19.9988L11.7638 20.0356L8.799 20.0403L7.63468 20.0279L6.87865 20.0043L6.32116 19.9652C6.14806 19.9506 5.98709 19.9344 5.83626 19.916C5.68543 19.8976 5.54497 19.8771 5.41282 19.8539C5.28759 19.8323 5.16312 19.8064 5.03963 19.7764C4.92703 19.749 4.81558 19.7171 4.70556 19.6807C4.59949 19.6455 4.49807 19.6067 4.3994 19.5641C4.30073 19.5214 4.20487 19.4747 4.10994 19.4237C4.015 19.3726 3.92105 19.3172 3.82605 19.2568C3.75437 19.2113 3.68509 19.1652 3.61842 19.1164C3.55174 19.0675 3.48732 19.0188 3.4253 18.9678C3.36328 18.9168 3.30372 18.8642 3.24628 18.8101C3.18922 18.7562 3.13412 18.7003 3.08108 18.6425C3.02822 18.5848 2.97769 18.5255 2.9292 18.464C2.88052 18.4023 2.83414 18.3388 2.79014 18.2737C2.74549 18.2076 2.70325 18.1399 2.66349 18.0707C2.62332 18.001 2.58512 17.9288 2.54882 17.8544C2.51191 17.7785 2.47748 17.7015 2.44557 17.6234C2.41315 17.5439 2.38242 17.4619 2.35352 17.3772C2.29573 17.2076 2.24498 17.0272 2.20086 16.8348C2.15674 16.6424 2.11911 16.438 2.08725 16.2202C2.05539 16.0025 2.02974 15.7716 2.0093 15.5262C1.99422 15.3454 1.98224 15.0638 1.97307 14.7086L1.9539 13.4452L1.96095 10.2247L2.01642 7.14728L2.05871 6.06302L2.08267 5.70464C2.09099 5.60892 2.09958 5.53802 2.10839 5.49545C2.13743 5.35541 2.16668 5.22509 2.19692 5.1031C2.22516 4.988 2.25658 4.87371 2.29115 4.76035C2.32399 4.65337 2.3586 4.55314 2.3956 4.45821C2.43128 4.36624 2.47104 4.27592 2.51478 4.1875C2.55749 4.10151 2.60337 4.01919 2.6532 3.93906C2.70303 3.85892 2.7568 3.78118 2.81544 3.70387C2.87408 3.62655 2.93723 3.55022 3.00595 3.47284C3.07467 3.39545 3.14888 3.31729 3.22937 3.23673C3.32317 3.14239 3.42085 3.05198 3.52214 2.96574C3.61778 2.88437 3.71753 2.80794 3.82097 2.73675C3.92267 2.66627 4.02698 2.60354 4.13559 2.54589C4.2442 2.48824 4.35711 2.43615 4.47587 2.38929C4.59462 2.34242 4.71937 2.30048 4.85152 2.26242C4.99035 2.22348 5.13073 2.19026 5.27228 2.16284C5.42114 2.13366 5.57922 2.10821 5.74802 2.08601C5.91682 2.06381 6.0964 2.04464 6.28839 2.02801C6.4223 2.01645 6.65305 2.00616 6.95688 1.99749L8.0627 1.97564L11.0044 1.95767L11.0039 1.9583Z" fill="url(#paint2_radial_268_501)"/>
</g>
<defs>
<radialGradient id="paint0_radial_268_501" cx="0" cy="0" r="1" gradientUnits="userSpaceOnUse" gradientTransform="translate(7.17633 17.4558) rotate(-9.53873) scale(23.7821 14.4469)">
<stop stop-color="#FED576"/>
<stop offset="0.263" stop-color="#F47133"/>
<stop offset="0.609" stop-color="#BC3081"/>
<stop offset="1" stop-color="#4C63D2"/>
</radialGradient>
<radialGradient id="paint1_radial_268_501" cx="0" cy="0" r="1" gradientUnits="userSpaceOnUse" gradientTransform="translate(15.9511 6.69033) rotate(-9.6095) scale(5.66481 3.46576)">
<stop stop-color="#FED576"/>
<stop offset="0.263" stop-color="#F47133"/>
<stop offset="0.609" stop-color="#BC3081"/>
<stop offset="1" stop-color="#4C63D2"/>
</radialGradient>
<radialGradient id="paint2_radial_268_501" cx="0" cy="0" r="1" gradientUnits="userSpaceOnUse" gradientTransform="translate(3.50515 23.5807) rotate(-9.53101) scale(46.4961 28.2229)">
<stop stop-color="#FED576"/>
<stop offset="0.263" stop-color="#F47133"/>
<stop offset="0.609" stop-color="#BC3081"/>
<stop offset="1" stop-color="#4C63D2"/>
</radialGradient>
<clipPath id="clip0_268_501">
<rect width="22" height="22" fill="white"/>
</clipPath>
</defs>
</svg>
