<svg width="23" height="25" viewBox="0 0 23 25" fill="none" xmlns="http://www.w3.org/2000/svg">
<path d="M3.32617 11.6377H1.62109C1.38086 11.6377 1.17578 11.5527 1.00586 11.3828C0.835938 11.207 0.750977 10.999 0.750977 10.7588C0.750977 10.5244 0.835938 10.3193 1.00586 10.1436C1.17578 9.96777 1.38086 9.87988 1.62109 9.87988H3.32617C3.56055 9.87988 3.76562 9.96777 3.94141 10.1436C4.12305 10.3135 4.21387 10.5186 4.21387 10.7588C4.21387 10.999 4.12305 11.207 3.94141 11.3828C3.76562 11.5527 3.56055 11.6377 3.32617 11.6377ZM5.08398 5.58203L3.87988 4.37793C3.70996 4.20801 3.625 4.00293 3.625 3.7627C3.625 3.52246 3.70996 3.31445 3.87988 3.13867C4.05566 2.96875 4.26367 2.88379 4.50391 2.88379C4.75 2.88379 4.95508 2.96875 5.11914 3.13867L6.31445 4.35156C6.48438 4.52148 6.56934 4.72656 6.56934 4.9668C6.5752 5.20703 6.49023 5.41211 6.31445 5.58203C6.14453 5.75781 5.93945 5.8457 5.69922 5.8457C5.45898 5.83984 5.25391 5.75195 5.08398 5.58203ZM10.6211 2.59375V0.888672C10.6211 0.654297 10.7061 0.449219 10.876 0.273438C11.0518 0.0976562 11.2598 0.00976562 11.5 0.00976562C11.7402 0.00976562 11.9482 0.0976562 12.124 0.273438C12.2998 0.449219 12.3877 0.654297 12.3877 0.888672V2.59375C12.3877 2.82812 12.2998 3.0332 12.124 3.20898C11.9541 3.38477 11.7461 3.47266 11.5 3.47266C11.2598 3.47266 11.0518 3.38477 10.876 3.20898C10.7061 3.0332 10.6211 2.82812 10.6211 2.59375ZM16.6768 4.35156L17.8896 3.13867C18.0596 2.96875 18.2617 2.88379 18.4961 2.88379C18.7363 2.88379 18.9443 2.96875 19.1201 3.13867C19.29 3.31445 19.375 3.52246 19.375 3.7627C19.375 4.00293 19.29 4.20801 19.1201 4.37793L17.9072 5.58203C17.7432 5.75781 17.541 5.8457 17.3008 5.8457C17.0605 5.8457 16.8525 5.75781 16.6768 5.58203C16.501 5.41211 16.4131 5.20703 16.4131 4.9668C16.4189 4.72656 16.5068 4.52148 16.6768 4.35156ZM21.3613 11.6377H19.665C19.4248 11.6377 19.2168 11.5527 19.041 11.3828C18.8711 11.207 18.7861 10.999 18.7861 10.7588C18.7861 10.5186 18.8711 10.3135 19.041 10.1436C19.2168 9.96777 19.4248 9.87988 19.665 9.87988H21.3613C21.6016 9.87988 21.8096 9.96777 21.9854 10.1436C22.1611 10.3193 22.249 10.5244 22.249 10.7588C22.249 10.999 22.1611 11.207 21.9854 11.3828C21.8096 11.5527 21.6016 11.6377 21.3613 11.6377ZM11.5 5.00195C12.2793 5.00195 13.0088 5.13672 13.6885 5.40625C14.374 5.66992 14.9746 6.03613 15.4902 6.50488C16.0059 6.97363 16.4072 7.52441 16.6943 8.15723C16.9814 8.79004 17.125 9.47266 17.125 10.2051C17.125 10.832 17.0605 11.3916 16.9316 11.8838C16.8086 12.376 16.6445 12.8564 16.4395 13.3252C16.2402 13.7939 16.0293 14.3066 15.8066 14.8633C15.5898 15.4199 15.3877 16.0762 15.2002 16.832C15.0127 17.582 14.8691 18.4932 14.7695 19.5654C14.752 19.7646 14.6846 19.9229 14.5674 20.04C14.4502 20.1572 14.2861 20.2158 14.0752 20.2158H8.9248C8.71387 20.2158 8.5498 20.1572 8.43262 20.04C8.31543 19.9229 8.24805 19.7646 8.23047 19.5654C8.13086 18.4932 7.9873 17.582 7.7998 16.832C7.6123 16.0762 7.40723 15.4199 7.18457 14.8633C6.96777 14.3066 6.75977 13.7939 6.56055 13.3252C6.36133 12.8564 6.19727 12.376 6.06836 11.8838C5.94531 11.3916 5.88379 10.832 5.88379 10.2051C5.88379 9.47266 6.02734 8.79004 6.31445 8.15723C6.60156 7.52441 7 6.97363 7.50977 6.50488C8.02539 6.03027 8.62305 5.66113 9.30273 5.39746C9.98242 5.13379 10.7148 5.00195 11.5 5.00195ZM8.86328 22.1318C8.70508 22.1318 8.57324 22.0791 8.46777 21.9736C8.3623 21.8623 8.30957 21.7305 8.30957 21.5781C8.30957 21.4199 8.3623 21.2881 8.46777 21.1826C8.57324 21.0771 8.70508 21.0244 8.86328 21.0244H14.1367C14.2949 21.0244 14.4268 21.0771 14.5322 21.1826C14.6436 21.2881 14.6992 21.4199 14.6992 21.5781C14.6992 21.7305 14.6436 21.8623 14.5322 21.9736C14.4268 22.0791 14.2949 22.1318 14.1367 22.1318H8.86328ZM11.5 24.5928C10.832 24.5928 10.2578 24.4404 9.77734 24.1357C9.30273 23.8311 9.05078 23.4326 9.02148 22.9404H13.9697C13.9404 23.4326 13.6855 23.8311 13.2051 24.1357C12.7305 24.4404 12.1621 24.5928 11.5 24.5928Z" fill="#F4F4F4"/>
</svg>
