<svg width="22" height="22" viewBox="0 0 22 22" fill="none" xmlns="http://www.w3.org/2000/svg">
<g clip-path="url(#clip0_268_1018)">
<path d="M22 11C22 4.92422 17.0758 0 11 0C4.92422 0 0 4.92422 0 11C0 16.491 4.02016 21.0418 9.28211 21.8672V14.1823H6.49129V11H9.28211V8.57699C9.28211 5.82227 10.9214 4.29773 13.435 4.29773C14.6403 4.29773 15.9002 4.51473 15.9002 4.51473V7.2209H14.514C13.1459 7.2209 12.7239 8.07082 12.7239 8.93879V11H15.7738L15.2857 14.1823H12.7239V21.8672C17.9798 21.0418 22 16.491 22 11Z" fill="#1877F2"/>
<path d="M15.2792 14.1824L15.7678 11.0001H12.7178V8.93891C12.7178 8.07094 13.1458 7.22102 14.5079 7.22102H15.8941V4.51484C15.8941 4.51484 14.6343 4.29785 13.429 4.29785C10.9157 4.29785 9.27605 5.82281 9.27605 8.57711V11.0001H6.48523V14.1824H9.27605V21.8673C9.83679 21.9576 10.4091 22.0001 10.9939 22.0001C11.5787 22.0001 12.1511 21.952 12.7118 21.8673V14.1824H15.2792Z" fill="#F4F4F4"/>
</g>
<defs>
<clipPath id="clip0_268_1018">
<rect width="22" height="22" fill="white"/>
</clipPath>
</defs>
</svg>
